# xmcd
#
# Track frame offsets:
# 182
# 23425
# 42235
# 59502
# 76862
# 94410
# 109787
# 133252
# 150567
# 167535
# 182502
# 190622
#
# Disc length: 2807 seconds
#
#
# Revision: 2
# Processed by: cddbd v1.5.1PL0 Copyright (c) Steve Scherf et al.
# Submitted via: FreeRIP 2.91 
#
DISCID=8e0af50c
DTITLE=Touré Kunda - Terra Saabi
DYEAR=1900
DGENRE=
TTITLE0=Nobel
TTITLE1=Diboukokou Lambe
TTITLE2=Rapada
TTITLE3=Aiyayao
TTITLE4=S.D.F./Homeless
TTITLE5=Diami Rew
TTITLE6=Sama Dio
TTITLE7=Terra Saabi
TTITLE8=Toumouranke
TTITLE9=Diabar
TTITLE10=Tormondon
TTITLE11=Cindy
EXTD=
EXTT0=
EXTT1=
EXTT2=
EXTT3=
EXTT4=
EXTT5=
EXTT6=
EXTT7=
EXTT8=
EXTT9=
EXTT10=
EXTT11=
PLAYORDER=
